<svg width="46" height="113" viewBox="0 0 46 113" fill="none" xmlns="http://www.w3.org/2000/svg">
<g id="Group">
<path id="Vector" d="M45.6075 6.02356L45.6075 0.715515L0.526489 0.715513L0.526489 6.02356L45.6075 6.02356Z" fill="#F1F2F2"/>
<path id="Vector_2" d="M45.6075 10.3735L45.6075 7.71954L0.526489 7.71954L0.526489 10.3735L45.6075 10.3735Z" fill="#F1F2F2"/>
<path id="Vector_3" d="M45.6075 14.7045L45.6075 12.0505L0.526489 12.0505L0.526489 14.7045L45.6075 14.7045Z" fill="#F1F2F2"/>
<path id="Vector_4" d="M45.6075 19.0355L45.6075 16.3815L0.526489 16.3815L0.526489 19.0355L45.6075 19.0355Z" fill="#F1F2F2"/>
<path id="Vector_5" d="M45.6075 36.8856L45.6075 34.2325L0.526487 34.2325L0.526487 36.8856L45.6075 36.8856Z" fill="#F1F2F2"/>
<path id="Vector_6" d="M45.6075 41.2175L45.6075 38.5635L0.526487 38.5635L0.526487 41.2175L45.6075 41.2175Z" fill="#F1F2F2"/>
<path id="Vector_7" d="M45.6075 45.5485L45.6075 42.8956L0.526487 42.8956L0.526487 45.5485L45.6075 45.5485Z" fill="#F1F2F2"/>
<path id="Vector_8" d="M45.6075 25.3395L45.6075 20.0316L0.526489 20.0316L0.526489 25.3395L45.6075 25.3395Z" fill="#F1F2F2"/>
<path id="Vector_9" d="M45.6075 32.3445L45.6075 27.0355L0.526487 27.0355L0.526487 32.3445L45.6075 32.3445Z" fill="#F1F2F2"/>
<path id="Vector_10" d="M45.6075 52.7745L45.6075 47.4645L0.526487 47.4645L0.526487 52.7745L45.6075 52.7745Z" fill="#F1F2F2"/>
<path id="Vector_11" d="M45.6075 58.9235L45.6075 53.6135L0.526487 53.6135L0.526487 58.9235L45.6075 58.9235Z" fill="#F1F2F2"/>
<path id="Vector_12" d="M45.6075 61.5756L45.6075 56.2686L0.526487 56.2686L0.526487 61.5756L45.6075 61.5756Z" fill="#F1F2F2"/>
<path id="Vector_13" d="M45.6075 65.9255L45.6075 63.2725L0.526487 63.2725L0.526487 65.9255L45.6075 65.9255Z" fill="#F1F2F2"/>
<path id="Vector_14" d="M45.6075 70.2565L45.6075 67.6035L0.526485 67.6035L0.526485 70.2565L45.6075 70.2565Z" fill="#F1F2F2"/>
<path id="Vector_15" d="M45.6075 74.5886L45.6075 71.9355L0.526485 71.9355L0.526485 74.5886L45.6075 74.5886Z" fill="#F1F2F2"/>
<path id="Vector_16" d="M45.6075 92.4376L45.6075 89.7836L0.526485 89.7836L0.526485 92.4376L45.6075 92.4376Z" fill="#F1F2F2"/>
<path id="Vector_17" d="M45.6075 96.7686L45.6075 94.1146L0.526485 94.1146L0.526485 96.7686L45.6075 96.7686Z" fill="#F1F2F2"/>
<path id="Vector_18" d="M45.6075 101.101L45.6075 98.4465L0.526485 98.4465L0.526485 101.101L45.6075 101.101Z" fill="#F1F2F2"/>
<path id="Vector_19" d="M45.6075 80.8925L45.6075 75.5825L0.526485 75.5825L0.526485 80.8925L45.6075 80.8925Z" fill="#F1F2F2"/>
<path id="Vector_20" d="M45.6075 87.8965L45.6075 82.5875L0.526485 82.5875L0.526485 87.8965L45.6075 87.8965Z" fill="#F1F2F2"/>
<path id="Vector_21" d="M45.6075 108.327L45.6075 103.017L0.526485 103.017L0.526485 108.327L45.6075 108.327Z" fill="#F1F2F2"/>
<path id="Vector_22" d="M45.6075 112.676L45.6075 107.458L0.526485 107.458L0.526485 112.676L45.6075 112.676Z" fill="#F1F2F2"/>
</g>
</svg>
