<svg width="113" height="46" viewBox="0 0 113 46" fill="none" xmlns="http://www.w3.org/2000/svg">
<g id="Group">
<path id="Vector" d="M106.98 0.688477L106.98 45.7685L112.289 45.7685L112.289 0.688476L106.98 0.688477Z" fill="#58595B"/>
<path id="Vector_2" d="M102.631 0.688477L102.631 45.7685L105.284 45.7685L105.284 0.688476L102.631 0.688477Z" fill="#58595B"/>
<path id="Vector_3" d="M98.2985 0.688477L98.2985 45.7685L100.952 45.7685L100.952 0.688476L98.2985 0.688477Z" fill="#58595B"/>
<path id="Vector_4" d="M93.9675 0.688477L93.9675 45.7685L96.6215 45.7685L96.6215 0.688476L93.9675 0.688477Z" fill="#58595B"/>
<path id="Vector_5" d="M76.1175 0.688477L76.1175 45.7685L78.7705 45.7685L78.7705 0.688476L76.1175 0.688477Z" fill="#58595B"/>
<path id="Vector_6" d="M71.7855 0.688477L71.7855 45.7685L74.4395 45.7685L74.4395 0.688476L71.7855 0.688477Z" fill="#58595B"/>
<path id="Vector_7" d="M67.4545 0.688477L67.4545 45.7685L70.1075 45.7685L70.1075 0.688476L67.4545 0.688477Z" fill="#58595B"/>
<path id="Vector_8" d="M87.6635 0.688477L87.6635 45.7685L92.9725 45.7685L92.9725 0.688476L87.6635 0.688477Z" fill="#58595B"/>
<path id="Vector_9" d="M80.6595 0.688477L80.6595 45.7685L85.9675 45.7685L85.9675 0.688476L80.6595 0.688477Z" fill="#58595B"/>
<path id="Vector_10" d="M60.2285 0.688477L60.2285 45.7685L65.5385 45.7685L65.5385 0.688476L60.2285 0.688477Z" fill="#58595B"/>
<path id="Vector_11" d="M54.0795 0.688477L54.0795 45.7685L59.3895 45.7685L59.3895 0.688476L54.0795 0.688477Z" fill="#58595B"/>
<path id="Vector_12" d="M51.4285 0.688477L51.4285 45.7685L56.7355 45.7685L56.7355 0.688476L51.4285 0.688477Z" fill="#58595B"/>
<path id="Vector_13" d="M47.0775 0.688477L47.0775 45.7685L49.7305 45.7685L49.7305 0.688476L47.0775 0.688477Z" fill="#58595B"/>
<path id="Vector_14" d="M42.7465 0.688477L42.7465 45.7685L45.3995 45.7685L45.3995 0.688476L42.7465 0.688477Z" fill="#58595B"/>
<path id="Vector_15" d="M38.4145 0.688477L38.4145 45.7685L41.0675 45.7685L41.0675 0.688476L38.4145 0.688477Z" fill="#58595B"/>
<path id="Vector_16" d="M20.5645 0.688477L20.5645 45.7685L23.2185 45.7685L23.2185 0.688476L20.5645 0.688477Z" fill="#58595B"/>
<path id="Vector_17" d="M16.2335 0.688477L16.2335 45.7685L18.8875 45.7685L18.8875 0.688476L16.2335 0.688477Z" fill="#58595B"/>
<path id="Vector_18" d="M11.9015 0.688477L11.9015 45.7685L14.5555 45.7685L14.5555 0.688476L11.9015 0.688477Z" fill="#58595B"/>
<path id="Vector_19" d="M32.1105 0.688477L32.1105 45.7685L37.4205 45.7685L37.4205 0.688476L32.1105 0.688477Z" fill="#58595B"/>
<path id="Vector_20" d="M25.1065 0.688477L25.1065 45.7685L30.4155 45.7685L30.4155 0.688476L25.1065 0.688477Z" fill="#58595B"/>
<path id="Vector_21" d="M4.67752 0.688477L4.67752 45.7685L9.98752 45.7685L9.98752 0.688476L4.67752 0.688477Z" fill="#58595B"/>
<path id="Vector_22" d="M0.327513 0.688477L0.327515 45.7685L5.54552 45.7685L5.54551 0.688476L0.327513 0.688477Z" fill="#58595B"/>
</g>
</svg>
